<svg role="img" aria-label="Embracein logo" xmlns="http://www.w3.org/2000/svg" width="1760" height="2374" viewBox="0 0 1760 2374" version="1.1">
	<path d="M 1000.961 109.049 C 898.799 112.886, 795.099 147.221, 687.726 212.759 C 673.952 221.167, 673.952 221.167, 678.904 226.585 C 695.752 245.020, 711.345 269.613, 720.027 291.447 C 721.750 295.780, 724.664 299.850, 730.764 306.447 C 754.294 331.893, 763.281 357.415, 758.070 384 C 755.964 394.748, 749.736 414, 748.366 414 C 745.230 414, 727.738 388.909, 720.982 374.719 C 710.796 353.323, 709.558 340.348, 715.425 316.451 C 718.849 302.500, 718.849 302.500, 716.908 296.732 C 713.042 285.246, 699.169 258.459, 696.106 256.566 C 695.670 256.296, 695.933 258.421, 696.692 261.288 C 700.478 275.589, 699.465 295.844, 694.019 314.769 C 690.693 326.324, 690.700 326.385, 697.291 346 C 701.376 358.158, 701.490 358.856, 701.471 371.500 C 701.451 384.500, 701.451 384.500, 696.078 400 C 690.748 415.376, 690.707 415.590, 690.837 426.750 C 690.989 439.723, 690.181 440.693, 685.004 433.750 C 680.538 427.760, 671.673 409.072, 668.519 399 C 660.754 374.194, 662.929 359.171, 677.505 336.952 C 699.199 303.880, 700.476 261.509, 680.542 236.186 C 669.535 222.202, 672.263 222.494, 655.423 233.500 C 637.652 245.114, 613.948 261.713, 612.387 263.636 C 611.775 264.390, 610.972 267.593, 610.602 270.753 C 609.387 281.135, 606.005 296.169, 599.972 318 C 587.533 363.009, 585.792 387.407, 592.548 422.053 C 596.929 444.521, 600.854 452.050, 619.531 473.801 C 629.144 484.997, 629.342 485.156, 640.867 490.935 C 667.904 504.493, 682.848 521.711, 689.536 547.009 C 691.842 555.730, 691.781 597, 689.462 597 C 689.286 597, 686.522 594.245, 683.321 590.877 C 680.119 587.510, 671.341 579.172, 663.813 572.349 C 639.043 549.897, 634.860 541.963, 631.549 511.152 C 629.693 493.881, 628.632 491.274, 618.867 479.975 C 614.815 475.286, 609.264 468.672, 606.531 465.277 C 600.740 458.082, 600.610 458.054, 602.525 464.417 C 603.324 467.070, 605.115 474.699, 606.507 481.370 C 608.168 489.331, 610.584 496.992, 613.536 503.658 C 621.321 521.236, 624.088 537.050, 622.111 552.668 C 619.971 569.567, 616.120 576.942, 600.003 595 C 594.358 601.325, 587.973 609.099, 585.815 612.275 C 580.587 619.971, 579.735 619.065, 580.527 606.654 C 580.965 599.794, 580.660 592.170, 579.588 583.155 C 576.379 556.185, 577.050 552.888, 592.042 521.952 C 598.052 509.551, 603.236 498.071, 603.562 496.441 C 604.401 492.245, 601.849 479.321, 594.448 450.289 C 590.913 436.422, 587.314 420.897, 586.450 415.789 C 584.475 404.108, 583.484 374.463, 584.802 366.500 C 585.348 363.200, 585.668 360.364, 585.512 360.198 C 585.356 360.031, 582.713 364.648, 579.639 370.456 C 568.124 392.212, 550.412 415.144, 511.635 458.500 C 492.846 479.508, 478.448 498.290, 473.139 508.720 C 468.528 517.776, 467.803 523.065, 466.998 553.500 C 466.014 590.745, 466.140 590.256, 449.901 619.500 C 448.069 622.800, 445.204 629.258, 443.535 633.852 C 441.866 638.445, 440.050 642.212, 439.500 642.222 C 437.999 642.249, 432.287 627.207, 428.818 614.094 C 422.283 589.389, 423.837 567.996, 433.619 548 C 437.882 539.287, 439.376 537.398, 451.669 525.189 C 462.402 514.529, 466.724 509.349, 473.363 499.189 C 483.987 482.928, 493.972 470.449, 513.420 449.123 C 517 445.198, 518.119 444.632, 483.033 464.500 C 460.037 477.522, 456.389 480.706, 452.589 491.066 C 441.411 521.544, 427.228 537.065, 401.500 546.974 C 392.398 550.480, 384.544 554.217, 381.250 556.609 C 379.026 558.225, 379 558.200, 379 554.498 C 379 552.437, 380.114 545.249, 381.476 538.524 C 390.346 494.717, 406.802 478.078, 444.348 474.956 C 457.500 473.862, 457.500 473.862, 483.500 459.055 C 497.800 450.911, 512.650 442.527, 516.500 440.423 C 524.684 435.952, 531.120 429.579, 545.708 411.500 C 578.095 371.361, 593.795 336.252, 604.398 280.250 C 605.674 273.512, 606.483 268, 606.196 268 C 605.327 268, 583.444 284.596, 567.500 297.348 C 387.679 441.156, 256.772 630.513, 183.681 852.540 C 171.704 888.923, 156 945.333, 157.446 946.779 C 157.739 947.073, 168.672 936.767, 181.740 923.878 C 194.808 910.989, 212.800 893.786, 221.723 885.650 C 239.718 869.240, 239.008 870.381, 241.432 854 C 244.346 834.311, 245.238 822.475, 244.565 812.430 C 243.726 799.912, 245.284 792.337, 251.085 780.707 C 259.580 763.679, 271.232 746, 273.959 746 C 275.079 746, 276.972 753.985, 278.010 763.087 C 279.738 778.237, 276.022 789.742, 265.371 802.221 C 250.817 819.274, 249.918 821.293, 247.444 842.496 C 246.610 849.648, 245.311 857.863, 244.558 860.750 C 242.904 867.095, 242.564 867.063, 250.239 861.294 C 286.582 833.977, 287.251 833.369, 292.577 822.809 C 302.621 802.897, 303.983 798.427, 304.474 783.772 C 305.466 754.192, 313.541 727.379, 325.364 714.406 C 331.936 707.195, 332.500 708.292, 332.500 728.301 C 332.500 751.619, 329.300 761.993, 312.767 792.270 C 303.001 810.154, 294.692 827, 295.637 827 C 295.937 827, 298.847 825.131, 302.104 822.846 C 308.277 818.516, 316.320 809.190, 333.384 786.578 C 344.783 771.472, 344.718 771.592, 353.452 749.500 C 366.041 717.655, 373.856 707.636, 394 697.517 C 407.021 690.977, 440.647 680.046, 443.095 681.558 C 444.209 682.247, 438.241 691.749, 432.289 698.763 C 426.083 706.077, 408.548 721.722, 372.782 751.857 C 359.879 762.729, 352.886 769.940, 341.609 784 C 326.453 802.898, 317.959 814, 318.656 814 C 319.017 814, 326.105 810.227, 334.406 805.616 C 354.672 794.359, 377.013 783.262, 392.086 776.964 C 409.336 769.757, 414.880 766.827, 427.462 758.270 C 449.570 743.234, 456.772 741, 483.140 741 C 502.836 741, 507.785 742.037, 509.865 746.603 C 513.772 755.179, 500.514 761.044, 474 762.470 C 447.496 763.895, 428.104 768.730, 393.074 782.647 C 374.173 790.157, 350 801.262, 350 802.436 C 350 802.666, 355.738 802.607, 362.750 802.305 C 374.072 801.818, 376.732 802.042, 386.500 804.306 C 392.550 805.709, 400.200 807.130, 403.500 807.463 C 416.688 808.798, 443.462 818.101, 455.500 825.533 C 468.304 833.437, 477.952 846.619, 472.250 848.417 C 469.589 849.257, 450.213 844.563, 441.688 841.014 C 432.779 837.305, 413.865 826.238, 402.293 817.964 C 391.643 810.349, 390.021 809.566, 380.570 807.474 C 363.863 803.777, 343.467 807.061, 324.369 816.523 C 307.653 824.805, 274.108 847.512, 276 849.263 C 276.275 849.517, 279.833 849.357, 283.906 848.907 C 292.640 847.942, 303.167 849.103, 311.340 851.932 C 316.512 853.723, 318.744 853.885, 330.840 853.351 C 356.137 852.234, 379.968 859.936, 394.750 874.008 C 399.308 878.347, 399.067 878.602, 389.182 879.869 C 360.412 883.559, 338.824 878.372, 322.253 863.789 C 313.877 856.419, 309.111 854.388, 296.432 852.787 C 275.048 850.086, 260.498 856.695, 234.977 880.703 C 226.601 888.583, 225.336 890.634, 229.498 889.590 C 230.871 889.245, 236.764 889.671, 242.592 890.537 C 253.189 892.110, 253.189 892.110, 264.344 886.805 C 275.500 881.500, 275.500 881.500, 288.500 881.547 C 310.743 881.628, 330.995 891.005, 324.011 897.989 C 320.845 901.155, 317.749 901.500, 292.500 901.500 C 268.500 901.500, 268.500 901.500, 259.041 898.199 C 253.838 896.383, 244.935 894.179, 239.257 893.301 C 223.273 890.828, 224.890 889.882, 195.500 918.897 C 181.750 932.471, 167.028 946.421, 162.783 949.896 C 158.539 953.371, 154.849 956.953, 154.583 957.857 C 152.046 966.472, 140.588 1025.921, 141.323 1026.656 C 141.560 1026.893, 145.722 1026.594, 150.572 1025.991 C 164.817 1024.221, 177.759 1025.912, 215.162 1034.432 C 228.743 1037.526, 232.533 1038, 243.688 1038 C 283.623 1038, 304.633 1048.533, 323.473 1078 C 327.165 1083.775, 331.025 1089.694, 332.051 1091.153 C 333.916 1093.805, 333.916 1093.805, 329.208 1094.249 C 320.222 1095.096, 300.491 1093.070, 288.683 1090.088 C 262.755 1083.540, 249.079 1073.853, 233.073 1050.699 C 226.834 1041.675, 226.449 1041.488, 203.911 1036.549 C 194.885 1034.571, 186.488 1032.730, 185.250 1032.457 C 181.806 1031.699, 182.443 1032.429, 189.750 1037.615 C 199.984 1044.879, 212.687 1058.175, 221.883 1071.250 C 226.428 1077.713, 230.567 1083, 231.081 1083 C 231.595 1083, 237.704 1085.095, 244.656 1087.655 C 266.934 1095.860, 275.322 1103.177, 289.338 1126.637 C 296.532 1138.679, 303.075 1146.647, 308.544 1150.027 C 314.270 1153.566, 312.993 1154.369, 302.750 1153.671 C 273.896 1151.702, 244.112 1134.781, 233.173 1114.142 C 229.376 1106.977, 226.363 1097.757, 225.461 1090.537 C 224.911 1086.131, 223.638 1083.184, 219.629 1077.036 C 197.612 1043.273, 168.410 1025.567, 143.500 1030.876 C 140.500 1031.515, 140.500 1031.515, 138.274 1046.008 C 135.638 1063.178, 131.993 1094.489, 132.017 1099.770 C 132.031 1103.008, 133.549 1105.413, 143.520 1118 C 149.837 1125.975, 159.617 1139.206, 165.253 1147.402 C 193.285 1188.169, 232.066 1220.685, 261.404 1228.021 C 283.157 1233.460, 303.558 1232.507, 322.617 1225.163 C 341.581 1217.855, 345.388 1216.886, 357.500 1216.289 C 382.701 1215.046, 402.331 1223.995, 423.905 1246.562 C 428.907 1251.794, 433 1256.509, 433 1257.038 C 433 1257.582, 429.147 1258, 424.139 1258 C 419.266 1258, 409.478 1258.895, 402.389 1259.989 C 369.323 1265.093, 354.072 1261.782, 329.106 1244.079 C 322.839 1239.636, 317.214 1235.901, 316.606 1235.781 C 314.273 1235.319, 275.012 1235.526, 275.025 1236 C 275.066 1237.440, 306.879 1252.432, 315.500 1255.074 C 337.893 1261.936, 354.312 1273.278, 363.954 1288.544 C 371.214 1300.040, 373.036 1306.166, 375.435 1327.150 C 376.231 1334.107, 377.859 1343.018, 379.054 1346.953 C 380.249 1350.887, 380.962 1354.371, 380.638 1354.695 C 380.314 1355.019, 375.859 1351.282, 370.738 1346.392 C 365.617 1341.501, 355.920 1333.728, 349.188 1329.119 C 330.441 1316.280, 325.982 1310.091, 312.967 1278.837 C 305.957 1262.005, 302.789 1256.473, 298.671 1253.871 C 296.927 1252.770, 280.532 1244.445, 262.237 1235.372 C 225.235 1217.020, 217.907 1212.266, 198.643 1194.112 C 192.672 1188.484, 187.592 1184.075, 187.353 1184.313 C 187.115 1184.552, 188.297 1188.212, 189.979 1192.447 C 199.405 1216.176, 204.578 1239.414, 211.028 1287 C 216.621 1328.271, 221.929 1352.485, 228.500 1366.707 C 232.359 1375.058, 238.558 1381.670, 263.917 1404.480 C 284.276 1422.793, 290.229 1431.564, 296.502 1452.500 C 297.985 1457.450, 301.203 1465.213, 303.652 1469.750 C 306.101 1474.287, 307.671 1478, 307.141 1478 C 306.611 1478, 301.075 1475.814, 294.839 1473.143 C 258.449 1457.555, 243.262 1445.364, 232.877 1423.405 C 227.666 1412.385, 226.152 1405.106, 225.409 1387.500 C 224.833 1373.842, 224.389 1371.145, 220.447 1357.353 C 216.018 1341.858, 212.561 1326.423, 209.449 1308.250 C 207.656 1297.775, 206.700 1295.881, 205.665 1300.750 C 193.813 1356.509, 193.817 1354.225, 205.519 1379.041 C 218.246 1406.030, 218.791 1419.281, 208.458 1450.500 C 206.092 1457.650, 203.845 1465.188, 203.466 1467.250 C 202.597 1471.980, 202.046 1471.940, 199.192 1466.944 C 197.923 1464.722, 193.358 1458.278, 189.048 1452.624 C 174.326 1433.312, 169.676 1421.946, 169.567 1405 C 169.483 1391.780, 171.999 1383.457, 179.800 1371.153 C 182.817 1366.394, 186.586 1360.449, 188.174 1357.942 C 190.486 1354.291, 191.444 1350.886, 192.987 1340.837 C 194.046 1333.937, 197.235 1317.763, 200.073 1304.896 C 205.912 1278.429, 205.912 1278.299, 200.406 1248 C 191.858 1200.965, 176.529 1168.258, 141.694 1122.736 C 131.162 1108.973, 131.162 1108.973, 130.591 1115.236 C 119.327 1238.716, 129.756 1375.941, 159.530 1496 C 227.922 1771.783, 394.464 2014.458, 627.103 2177.319 C 696.777 2226.095, 773.667 2268.214, 854.921 2302.115 C 866.703 2307.031, 876.747 2310.918, 877.241 2310.753 C 877.734 2310.589, 869.450 2303.039, 858.831 2293.977 C 702.572 2160.621, 618.235 1952.864, 642.032 1759.906 C 668.549 1544.893, 823.392 1386.848, 1048 1345.544 C 1076.926 1340.225, 1093.336 1338.353, 1139 1335.164 C 1149.500 1334.431, 1149.500 1334.431, 1141.496 1330.328 C 1069.397 1293.370, 1014.333 1212.064, 1007.901 1133.066 C 1006.059 1110.448, 1005.009 1111.829, 1045 1084.288 C 1107.399 1041.314, 1125.804 1027.898, 1144.702 1011.608 C 1195.346 967.954, 1239.716 889.360, 1254.003 818 C 1264.270 766.720, 1258.722 727.454, 1236.484 694 C 1226.041 678.290, 1226.470 678.387, 1215.988 689.351 C 1190.982 715.508, 1163.718 728.493, 1134 728.400 C 1113.126 728.334, 1102.249 724.424, 1075 707.191 C 1041.306 685.881, 1028.118 683.146, 999 691.425 C 978.933 697.130, 977.565 696.561, 973.949 681 C 967.137 651.690, 948.337 612.463, 928.448 586.060 C 919.730 574.487, 902.784 554.986, 884.946 536 C 829.621 477.114, 807.006 440.306, 798.008 394.500 C 796.010 384.331, 793.963 355, 795.250 355 C 795.550 355, 798.428 356.297, 801.647 357.883 C 837.590 375.590, 880.872 380.740, 947 375.177 C 990.156 371.546, 999.735 371.018, 1022.500 371.012 C 1061.470 371.003, 1090.039 374.944, 1116.680 384.005 C 1121.523 385.652, 1125.728 387, 1126.026 387 C 1126.324 387, 1126.563 382.837, 1126.558 377.750 C 1126.539 359.106, 1136.894 350.149, 1153.427 354.505 C 1169.879 358.840, 1185.900 381.573, 1193.018 410.682 C 1193.994 414.673, 1194.761 415.341, 1209.864 425.348 C 1238.855 444.557, 1257.967 462.015, 1278.767 488.287 C 1287.484 499.297, 1289.027 500.819, 1289.872 499.239 C 1292.577 494.184, 1297.587 468.172, 1300.222 445.500 C 1302.262 427.941, 1301.925 358.890, 1299.691 337 C 1293.449 275.822, 1284.498 242.056, 1267.093 214.039 C 1232.543 158.423, 1163.764 120.246, 1081.500 111.021 C 1073.134 110.083, 1024.699 107.800, 1021.500 108.193 C 1020.950 108.260, 1011.707 108.646, 1000.961 109.049 M 1048.200 181.200 C 1045.395 184.005, 1047.508 189, 1051.500 189 C 1054.180 189, 1056 187.180, 1056 184.500 C 1056 181.820, 1054.180 180, 1051.500 180 C 1050.345 180, 1048.860 180.540, 1048.200 181.200 M 853.035 219.934 C 851.410 222.970, 851.802 224.824, 854.433 226.548 C 857.734 228.711, 861 227.028, 861 223.165 C 861 218.189, 855.223 215.846, 853.035 219.934 M 993.200 219.200 C 990.395 222.005, 992.508 227, 996.500 227 C 999.180 227, 1001 225.180, 1001 222.500 C 1001 219.820, 999.180 218, 996.500 218 C 995.345 218, 993.860 218.540, 993.200 219.200 M 1154 226 C 1150.793 229.207, 1151.468 232.630, 1155.750 234.885 C 1159.134 236.667, 1164 233.234, 1164 229.066 C 1164 227.275, 1160.121 224, 1158 224 C 1156.900 224, 1155.100 224.900, 1154 226 M 926.200 231.200 C 923.053 234.347, 925.494 240, 930 240 C 933.305 240, 935 238.305, 935 235 C 935 231.695, 933.305 230, 930 230 C 928.570 230, 926.860 230.540, 926.200 231.200 M 797.571 239.571 C 795.353 241.790, 795.621 244.621, 798.223 246.443 C 801.083 248.447, 801.592 248.408, 804 246 C 807.262 242.738, 805.485 238, 801 238 C 799.979 238, 798.436 238.707, 797.571 239.571 M 744 242 C 741.597 244.403, 741.462 246.786, 743.557 249.777 C 745.479 252.522, 750.033 252.726, 752.345 250.171 C 757.540 244.431, 749.470 236.530, 744 242 M 1053.278 253.093 C 1049.922 254.334, 1048.597 257.614, 1050.043 261.103 C 1052.237 266.402, 1060.038 265.970, 1061.417 260.474 C 1062.668 255.491, 1058.069 251.321, 1053.278 253.093 M 1183.452 288.433 C 1182.236 290.289, 1182.112 291.340, 1182.928 292.865 C 1185.362 297.414, 1192 296.170, 1192 291.165 C 1192 285.791, 1186.364 283.989, 1183.452 288.433 M 863 291 C 860.767 293.233, 860.499 295.195, 862.035 298.066 C 864.166 302.047, 872 299.581, 872 294.929 C 872 292.639, 868.624 289, 866.500 289 C 865.675 289, 864.100 289.900, 863 291 M 952.223 300.557 C 947.009 304.209, 952.178 312.079, 957.500 308.592 C 961.403 306.035, 959.570 299, 955 299 C 954.695 299, 953.445 299.701, 952.223 300.557 M 1112 301 C 1107.555 305.445, 1112.847 313.758, 1118.486 311.188 C 1122.573 309.326, 1123.778 305.521, 1121.325 302.221 C 1118.728 298.727, 1114.789 298.211, 1112 301 M 1250.997 302.503 C 1248.155 305.928, 1251.113 313, 1255.388 313 C 1259.845 313, 1262.964 305.364, 1259.800 302.200 C 1258.112 300.512, 1252.489 300.706, 1250.997 302.503 M 726.373 310.391 C 728.740 317.044, 735 355.209, 735 362.992 C 735 366.030, 733.401 367.827, 732 366.363 C 731.546 365.888, 730.441 359.366, 729.544 351.869 C 727.938 338.450, 724.062 317.884, 722.220 313.011 C 721.403 310.851, 720.973 311.776, 718.968 320.011 C 712.600 346.162, 718.500 367.237, 740.732 397.750 C 743.637 401.738, 746.395 405, 746.860 405 C 748.735 405, 755 377.536, 755 369.317 C 755 350.561, 743.814 325.484, 729.432 312 C 726.925 309.649, 725.920 309.121, 726.373 310.391 M 687.593 338.250 C 687.245 340.038, 686.683 350.875, 686.344 362.333 C 685.843 379.308, 685.457 383.271, 684.264 383.729 C 683.458 384.038, 682.362 383.663, 681.830 382.896 C 680.833 381.460, 681.399 349.064, 682.552 341.500 C 683.162 337.500, 683.162 337.500, 681.103 340 C 665.536 358.896, 665.363 386.192, 680.621 416.160 C 684.358 423.500, 684.358 423.500, 686.010 416.500 C 686.918 412.650, 689.759 403.416, 692.324 395.979 C 699.595 374.895, 699.647 368.668, 692.739 345.758 C 689.257 334.208, 688.575 333.214, 687.593 338.250 M 988 479.948 C 969.189 483.946, 950.658 493.596, 937.969 506 C 926.040 517.661, 922.706 524.816, 928.228 526.910 C 931.217 528.043, 931.882 527.583, 937.624 520.406 C 951.237 503.394, 974.514 490.495, 997 487.502 C 1003.993 486.571, 1006 485.493, 1006 482.665 C 1006 477.544, 1002.086 476.953, 988 479.948 M 428.032 482.065 C 409.726 486.858, 395.514 502.097, 389.042 523.873 C 386.680 531.819, 383.978 548, 385.013 548 C 385.418 548, 389.023 541.587, 393.025 533.750 C 407.693 505.023, 417.419 493.879, 437.500 482.796 C 442.500 480.036, 442.500 480.036, 439 480.073 C 437.075 480.093, 432.139 480.990, 428.032 482.065 M 440.121 485.483 C 424.758 493.761, 413.227 505.138, 403.106 522 C 396.456 533.080, 396.669 533.599, 404.250 524.782 C 412.149 515.594, 430.219 497.366, 440 488.717 C 444.125 485.070, 447.275 482.077, 447 482.066 C 446.725 482.055, 443.630 483.592, 440.121 485.483 M 441.450 492.693 C 427.691 504.559, 391.770 544.103, 393.332 545.665 C 393.666 545.999, 399.015 543.757, 405.219 540.683 C 425.706 530.533, 438.195 517.082, 446.053 496.705 C 450.131 486.131, 449.599 485.666, 441.450 492.693 M 634.420 498.500 C 634.729 501.250, 635.439 507.945, 635.997 513.378 C 638.709 539.784, 643.721 548.105, 672.523 574.021 C 685.740 585.913, 685.740 585.913, 686.370 581.317 C 690.717 549.599, 679.752 522.800, 654.957 504.547 C 644.823 497.087, 644.156 497.063, 649.354 504.348 C 658.196 516.739, 664.879 533.548, 661.500 534.900 C 660.416 535.334, 659.934 534.481, 654.536 522.589 C 650.791 514.338, 644.939 505.658, 637.959 498 C 633.856 493.500, 633.856 493.500, 634.420 498.500 M 766.606 503.450 C 760.837 511.013, 752.321 513.584, 743.500 510.426 C 742.224 509.969, 743.097 511.375, 745.914 514.310 C 751.466 520.096, 752.543 526.724, 749.168 534.353 C 746.886 539.513, 747.728 540.432, 750.966 536.316 C 757.536 527.964, 764.038 526.744, 776.500 531.527 C 777.895 532.063, 777.399 531.116, 774.860 528.397 C 768.051 521.106, 766.315 515.050, 768.562 506.422 C 770.380 499.444, 770.047 498.938, 766.606 503.450 M 609.583 506.913 C 612.782 518.687, 606.803 555.603, 601.359 557.692 C 598.662 558.727, 598.652 557.006, 601.308 549.245 C 604.676 539.405, 606.001 530.860, 605.922 519.500 C 605.846 508.515, 604.823 504.965, 603.042 509.500 C 602.395 511.150, 598.309 519.925, 593.964 529 C 582.099 553.777, 581.805 555.549, 584.652 585.193 L 586.351 602.885 594.926 593.801 C 610.021 577.809, 613.933 571.514, 616.628 558.878 C 618.917 548.145, 617.999 530.352, 614.550 518.632 C 612.189 510.608, 607.726 500.078, 609.583 506.913 M 1030.256 515.250 C 1029.711 515.938, 1028.952 518.975, 1028.567 522 C 1026.792 535.967, 1018.784 545.001, 1006.388 547.018 C 1000.363 547.999, 999.041 549.031, 999.015 552.771 C 998.981 557.925, 1008.450 557.846, 1018.791 552.606 C 1024.782 549.570, 1032.436 541.452, 1035.146 535.259 C 1037.712 529.398, 1038.817 517.690, 1037.011 515.513 C 1035.490 513.680, 1031.618 513.529, 1030.256 515.250 M 461.467 528.642 C 455.172 543.364, 450.233 559.494, 446.431 577.750 C 446.173 578.987, 445.295 580, 444.481 580 C 440.149 580, 446.473 551.145, 454.857 532.654 C 458.733 524.106, 457.755 524.276, 449.115 533.653 C 429.433 555.013, 424.535 583.050, 434.490 617.357 C 439.022 632.977, 438.445 632.614, 443.345 622.925 C 445.689 618.291, 449.949 610.172, 452.810 604.883 C 461.097 589.568, 462.122 584.233, 462.875 552.500 C 463.227 537.650, 463.426 525.339, 463.316 525.142 C 463.207 524.945, 462.375 526.520, 461.467 528.642 M 496.485 603.048 C 495.778 605.276, 497.464 608, 499.551 608 C 502.082 608, 504.084 605.026, 502.963 602.931 C 501.562 600.314, 497.328 600.390, 496.485 603.048 M 759.571 607.571 C 756.571 610.572, 758.725 616, 762.916 616 C 763.892 616, 765.435 615.177, 766.345 614.171 C 770.577 609.495, 764.029 603.114, 759.571 607.571 M 359.930 633.856 C 357.845 635.544, 357.710 636.068, 358.765 638.383 C 360.109 641.333, 363.961 641.957, 365.960 639.548 C 369.143 635.713, 363.829 630.698, 359.930 633.856 M 668.200 651.200 C 664.806 654.594, 668.797 660.249, 673 658 C 676.530 656.111, 675.002 650, 671 650 C 670.120 650, 668.860 650.540, 668.200 651.200 M 863.381 659.541 C 862.056 661.564, 861.942 662.577, 862.824 664.513 C 865.307 669.963, 873 667.972, 873 661.880 C 873 656.827, 866.237 655.182, 863.381 659.541 M 636.073 689.927 C 633.588 692.412, 633.501 693.358, 635.571 695.429 C 637.538 697.395, 640.383 697.449, 641.960 695.548 C 645.131 691.728, 639.576 686.424, 636.073 689.927 M 570.374 694.702 C 563.732 695.967, 561.225 705.680, 566.245 710.700 C 574.559 719.014, 587.286 706.678, 579.250 698.094 C 576.341 694.987, 573.859 694.038, 570.374 694.702 M 764.655 702.829 C 760.312 707.628, 765.348 714.991, 770.865 711.909 C 772.540 710.973, 773.618 709.414, 773.825 707.630 C 774.461 702.134, 768.234 698.873, 764.655 702.829 M 718.495 703.576 C 717.608 704.981, 714.997 705.052, 694.500 704.232 C 660.998 702.891, 590 702.719, 590 703.979 C 590 704.541, 591.237 705.008, 592.750 705.017 C 594.263 705.027, 607.650 705.692, 622.500 706.495 C 637.350 707.299, 664.857 707.966, 683.628 707.978 C 712.725 707.997, 717.939 708.221, 719 709.500 C 719.685 710.325, 721.329 711, 722.654 711 C 723.979 711, 725.322 710.325, 725.638 709.500 C 726.103 708.289, 728.550 707.981, 738.357 707.900 C 745.036 707.845, 751.625 707.440, 753 707 C 754.548 706.504, 750.505 706.161, 742.385 706.100 C 730.875 706.012, 728.959 705.755, 726.727 704 C 723.678 701.602, 719.865 701.405, 718.495 703.576 M 572.604 761.500 C 572.167 782.400, 571.515 804.450, 571.155 810.500 C 570.500 821.500, 570.500 821.500, 567.010 812 C 562.839 800.647, 562.644 801.242, 563.154 823.750 C 563.433 836.037, 563.239 839, 562.154 839 C 559.933 839, 549.984 835.937, 542.123 832.833 C 538.066 831.231, 534.564 830.103, 534.341 830.326 C 533.821 830.845, 553.394 847.079, 556.593 848.782 C 560.077 850.637, 560.040 850.693, 547.955 861.952 C 541.880 867.612, 537.085 872.419, 537.301 872.634 C 537.517 872.850, 539.359 872.330, 541.396 871.479 C 549.344 868.158, 555 866.046, 555 866.398 C 555 866.601, 548.830 871.647, 541.290 877.611 C 528.460 887.759, 451.199 950.057, 426.305 970.328 C 420.148 975.341, 415.284 979.617, 415.496 979.829 C 416.308 980.641, 528.980 895.932, 555.250 874.760 C 560.612 870.438, 564.978 867.486, 564.951 868.201 C 564.923 868.915, 563.625 876.475, 562.066 885 C 560.507 893.525, 559.402 900.685, 559.610 900.911 C 559.819 901.138, 564.293 892.458, 569.553 881.623 L 579.118 861.924 590.301 872.386 C 596.452 878.140, 601.610 882.723, 601.764 882.570 C 601.917 882.417, 598.433 876.326, 594.021 869.035 C 589.609 861.744, 586 855.378, 586 854.889 C 586 854.400, 588.362 853.997, 591.250 853.993 C 594.138 853.989, 599.597 853.693, 603.381 853.336 C 610.262 852.686, 610.262 852.686, 598.395 848.274 C 591.869 845.847, 586.397 843.730, 586.236 843.569 C 586.075 843.408, 589.017 838.602, 592.774 832.888 C 602.212 818.534, 601.852 819.191, 599.296 821 C 598.131 821.825, 593.344 825.538, 588.658 829.250 C 583.973 832.962, 579.940 836, 579.698 836 C 579.455 836, 578.961 829.138, 578.601 820.750 C 574.499 725.192, 573.558 715.890, 572.604 761.500 M 627.427 747.765 C 623.327 750.573, 626.882 757.286, 631.383 755.235 C 633.112 754.448, 634 753.255, 634 751.721 C 634 747.879, 630.413 745.721, 627.427 747.765 M 812.200 765.200 C 811.540 765.860, 811 767.345, 811 768.500 C 811 769.655, 811.540 771.140, 812.200 771.800 C 812.860 772.460, 814.345 773, 815.500 773 C 816.655 773, 818.140 772.460, 818.800 771.800 C 819.460 771.140, 820 769.655, 820 768.500 C 820 767.345, 819.460 765.860, 818.800 765.200 C 818.140 764.540, 816.655 764, 815.500 764 C 814.345 764, 812.860 764.540, 812.200 765.200 M 1038.011 765.487 C 1035.217 768.854, 1039.205 774.010, 1043.368 772.412 C 1047.528 770.816, 1046.014 764, 1041.500 764 C 1040.260 764, 1038.690 764.669, 1038.011 765.487 M 1190.032 770.940 C 1188.386 774.016, 1190.391 777.209, 1193.716 776.810 C 1197.065 776.408, 1198.893 773.644, 1197.394 771.250 C 1195.750 768.624, 1191.370 768.440, 1190.032 770.940 M 911.820 778.496 C 910.503 781.387, 912.898 785, 916.132 785 C 918.940 785, 921.404 780.624, 920.036 778.067 C 918.386 774.985, 913.299 775.251, 911.820 778.496 M 1083 781 C 1080.592 783.408, 1080.553 783.917, 1082.557 786.777 C 1085.301 790.696, 1091 789.129, 1091 784.455 C 1091 779.819, 1086.237 777.763, 1083 781 M 660.200 786.200 C 656.890 789.510, 661.552 795.203, 665.454 792.617 C 667.951 790.962, 668.577 788.400, 666.960 786.452 C 665.499 784.691, 661.845 784.555, 660.200 786.200 M 1429.875 817.560 C 1369.016 828.576, 1337.256 882.885, 1344.963 962.760 C 1353.923 1055.631, 1407.255 1224.480, 1469.487 1357 C 1495.244 1411.850, 1532.789 1483.155, 1563.670 1535.872 C 1568.300 1543.777, 1571.956 1550.357, 1571.794 1550.494 C 1571.467 1550.771, 1522.217 1552.126, 1353 1556.517 C 1205.168 1560.353, 1158.265 1564.028, 1104.443 1575.993 C 1089.410 1579.335, 1069.399 1582.757, 1043 1586.500 C 972.266 1596.528, 949.651 1607.390, 927.444 1642 C 924.797 1646.125, 922.344 1649.624, 921.992 1649.775 C 919.188 1650.978, 889.284 1671.295, 880.500 1677.965 C 844.337 1705.423, 799.439 1750.062, 792.300 1765.656 C 788.151 1774.719, 791.907 1780.544, 801.833 1780.441 C 808.865 1780.367, 811.879 1778.843, 823.710 1769.372 C 828.776 1765.318, 833.221 1762, 833.587 1762 C 833.954 1762, 829.809 1766.615, 824.377 1772.255 C 799.924 1797.646, 792.527 1810.315, 798.054 1817.341 C 802.613 1823.138, 810.339 1823.040, 823.621 1817.018 C 829.131 1814.519, 830.001 1814.355, 830.004 1815.813 C 830.011 1819.005, 833.929 1823.923, 838.202 1826.103 C 850.898 1832.580, 877.440 1824.674, 911.843 1804.166 C 924.141 1796.834, 924.066 1796.853, 919.680 1802.250 C 912.941 1810.544, 911.184 1815.115, 913.110 1819.343 C 916.382 1826.523, 927.326 1825.236, 949.348 1815.081 C 965.846 1807.474, 969.803 1804.933, 1065 1740.817 C 1118.279 1704.934, 1164.331 1676.177, 1172.341 1673.788 C 1175.114 1672.961, 1183.666 1672.563, 1198 1672.593 C 1225.572 1672.651, 1228.464 1673.092, 1328.500 1692.457 C 1391.884 1704.728, 1425.946 1707.614, 1520 1708.683 C 1659.303 1710.267, 1704.835 1698.327, 1718.706 1656.578 C 1722.092 1646.385, 1722.819 1620.934, 1721.064 1574 C 1714.233 1391.269, 1697.002 1265.255, 1656.881 1104.606 C 1648.107 1069.472, 1647.944 1069, 1644.587 1069 C 1639.167 1069, 1639.237 1069.656, 1648.847 1108.723 C 1678.491 1229.232, 1696.106 1333.737, 1703.928 1435.500 C 1711.019 1527.755, 1714.838 1631.984, 1711.667 1646.740 C 1702.848 1687.787, 1662.788 1699.961, 1536.500 1699.975 C 1439.134 1699.986, 1394.745 1696.031, 1311.500 1679.926 C 1263.624 1670.664, 1261.278 1670.219, 1248.736 1668.031 C 1221.140 1663.216, 1188.720 1661.489, 1174.434 1664.074 C 1162.203 1666.286, 1134.990 1683.011, 1035.500 1749.460 C 980.864 1785.952, 960.485 1799.024, 951 1803.663 C 938.205 1809.920, 924.115 1815.448, 923.226 1814.560 C 922.201 1813.534, 935.114 1796.954, 949.736 1780.522 C 956.907 1772.463, 956.731 1772.961, 953.666 1769.398 C 951.332 1766.685, 951.332 1766.685, 945.916 1770.744 C 934.005 1779.670, 899.909 1800.638, 887.582 1806.617 C 860.210 1819.891, 840 1823.121, 840 1814.221 C 840 1810.719, 842.839 1807.965, 857.509 1797.240 C 872.564 1786.232, 872.523 1786.284, 869.178 1782.348 C 866.500 1779.196, 866.500 1779.196, 852.500 1789.095 C 831.137 1804.200, 806 1815.935, 806 1810.803 C 806 1801.148, 874.144 1732.479, 903.895 1712.154 C 918.446 1702.213, 919.318 1701.412, 918.015 1699.181 C 914.621 1693.367, 915.171 1693.282, 902.355 1701.607 C 867.031 1724.556, 851.529 1735.412, 832.931 1750.228 C 809.291 1769.060, 806.034 1771.257, 802.412 1770.818 C 799.782 1770.500, 799.782 1770.500, 803.641 1764.807 C 812.869 1751.194, 841.366 1722.213, 865.328 1702.072 C 918.822 1657.110, 983.402 1622.883, 1063.500 1597.042 C 1136.582 1573.465, 1178.390 1569.621, 1423 1563.984 C 1447.475 1563.420, 1482.575 1562.530, 1501 1562.007 C 1519.425 1561.483, 1545.300 1560.758, 1558.500 1560.396 C 1582.064 1559.749, 1585 1559.289, 1585 1556.244 C 1585 1555.413, 1576.288 1539.381, 1565.640 1520.617 C 1470.591 1353.116, 1419.726 1233.610, 1377.043 1077.518 C 1346.512 965.864, 1344.975 906.242, 1371.557 864.732 C 1386.972 840.662, 1418.271 824, 1448.074 824 C 1454.673 824, 1457.869 821.492, 1455.917 817.845 C 1454.685 815.542, 1441.802 815.401, 1429.875 817.560 M 756.571 821.571 C 754.484 823.659, 754.584 826.314, 756.829 828.345 C 759.112 830.411, 760.426 830.431, 762.429 828.429 C 765.264 825.593, 763.321 820, 759.500 820 C 758.754 820, 757.436 820.707, 756.571 821.571 M 936.420 840.482 C 935.058 842.560, 934.939 843.570, 935.824 845.513 C 937.852 849.965, 945.063 849.691, 946.259 845.116 C 947.814 839.173, 939.762 835.381, 936.420 840.482 M 819.496 847.004 C 815.502 851.417, 822.199 856.658, 826.429 852.429 C 829.231 849.626, 827.148 845, 823.084 845 C 822.108 845, 820.494 845.902, 819.496 847.004 M 1107.977 854.023 C 1104.509 857.491, 1108.534 862.390, 1112.922 860.042 C 1115.388 858.722, 1115.620 855.763, 1113.429 853.571 C 1111.366 851.509, 1110.412 851.588, 1107.977 854.023 M 649.415 859.360 C 648.091 862.810, 649.395 865.500, 652.391 865.500 C 655.955 865.500, 658.001 862.816, 656.394 860.250 C 654.969 857.974, 650.181 857.364, 649.415 859.360 M 579.073 876.062 C 578.933 879.041, 584.972 895.270, 589.047 902.866 C 595.074 914.102, 596.631 914.935, 593.035 905 C 589.426 895.029, 579.180 873.793, 579.073 876.062 M 922.667 891.065 C 920.902 893.584, 921.578 896.704, 924.192 898.103 C 928.436 900.374, 933.225 893.625, 929.800 890.200 C 927.938 888.338, 924.266 888.783, 922.667 891.065 M 1036.427 889.765 C 1033.069 892.065, 1035.180 898, 1039.357 898 C 1042.170 898, 1044 896.226, 1044 893.500 C 1044 889.772, 1039.592 887.598, 1036.427 889.765 M 1199.200 897.200 C 1195.831 900.569, 1199.831 905.430, 1204.498 903.639 C 1207.716 902.404, 1205.623 896, 1202 896 C 1201.120 896, 1199.860 896.540, 1199.200 897.200 M 844.200 916.200 C 841.150 919.250, 843.565 924, 848.165 924 C 850.750 924, 853 921.737, 853 919.137 C 853 915.846, 846.667 913.733, 844.200 916.200 M 599.655 919.829 C 597.460 922.254, 597.567 924.298, 600.004 926.504 C 602.958 929.177, 607 927.185, 607 923.057 C 607 918.463, 602.629 916.542, 599.655 919.829 M 613 921.432 C 613 922.057, 655.234 959.645, 670.500 972.605 C 692.258 991.077, 738.099 1027.491, 742 1029.402 C 746.115 1031.417, 702.239 992.348, 678.500 972.858 C 644.729 945.133, 613 920.221, 613 921.432 M 280.536 924.960 C 277.014 928.852, 280.841 934.137, 285.998 932.501 C 290.474 931.080, 288.775 923, 284 923 C 283.070 923, 281.512 923.882, 280.536 924.960 M 1089.571 933.571 C 1086.378 936.765, 1088.225 942, 1092.545 942 C 1097.181 942, 1099.237 937.237, 1096 934 C 1093.592 931.592, 1091.678 931.465, 1089.571 933.571 M 708.976 935.024 C 706.494 937.506, 706.498 938.498, 709 941 C 711.502 943.502, 712.494 943.506, 714.976 941.024 C 716.427 939.573, 716.737 938.464, 716.143 936.857 C 714.912 933.531, 711.374 932.626, 708.976 935.024 M 269.500 957.500 C 235.087 961.460, 212.230 970.986, 205.387 984.219 C 203.548 987.775, 202.777 988.045, 216.007 980.496 C 226.750 974.366, 236.567 969.955, 239.288 970.036 C 242.015 970.117, 233.734 975.528, 221.826 981.445 C 198.619 992.977, 197.151 995.102, 213.789 993.079 C 231.162 990.967, 240.526 987.391, 257.063 976.556 C 264.826 971.470, 283.245 955.766, 281 956.149 C 280.725 956.196, 275.550 956.804, 269.500 957.500 M 897.200 962.200 C 895.208 964.192, 895.750 968.796, 898.126 970.068 C 902.486 972.401, 906.700 968.126, 904.883 963.213 C 903.965 960.732, 899.285 960.115, 897.200 962.200 M 400.960 972.081 C 395.044 984.151, 395.638 983.920, 386.389 977.757 C 373.647 969.266, 373.709 969.026, 385.315 981.954 C 392.181 989.602, 392.354 989.277, 378.825 994.117 C 373.947 995.862, 370.113 997.446, 370.305 997.638 C 370.497 997.830, 374.424 997.515, 379.032 996.937 C 387.595 995.863, 392 996.244, 392 998.057 C 392 998.617, 390.413 1003.185, 388.473 1008.207 C 383.815 1020.268, 384.449 1021.011, 390.728 1010.851 C 399.840 996.107, 400.147 995.872, 404.244 1000.533 C 414.832 1012.580, 414.536 1012.457, 409.878 1002.882 C 407.572 998.142, 405.930 993.625, 406.229 992.846 C 406.528 992.066, 410.428 989.461, 414.895 987.056 C 419.363 984.652, 422.855 982.522, 422.656 982.323 C 422.457 982.123, 419.265 982.663, 415.564 983.521 C 406.039 985.730, 404.986 985.195, 405.060 978.183 C 405.092 975.057, 405.471 970.362, 405.901 967.750 C 407.027 960.912, 405.989 961.821, 400.960 972.081 M 314.750 979.080 C 312.096 980.626, 312.523 984.826, 315.470 986.168 C 320.116 988.285, 323.565 981.443, 319.066 979.035 C 316.764 977.803, 316.946 977.801, 314.750 979.080 M 955.655 981.829 C 953.460 984.254, 953.567 986.298, 956.004 988.504 C 958.958 991.177, 963 989.185, 963 985.057 C 963 980.463, 958.629 978.542, 955.655 981.829 M 568.750 982.080 C 565.190 984.153, 567.220 990, 571.500 990 C 576.064 990, 577.536 985.189, 573.777 982.557 C 571.193 980.746, 571.061 980.734, 568.750 982.080 M 682.200 993.200 C 677.975 997.425, 683.663 1003.857, 689.066 1000.965 C 693.224 998.739, 690.919 992, 686 992 C 684.570 992, 682.860 992.540, 682.200 993.200 M 824.750 1006.080 C 821.107 1008.202, 823.241 1014, 827.665 1014 C 831.024 1014, 832.560 1010.503, 830.548 1007.433 C 828.825 1004.803, 827.480 1004.490, 824.750 1006.080 M 1019.223 1006.557 C 1015.096 1009.447, 1017.313 1016, 1022.416 1016 C 1024.799 1016, 1028 1013.206, 1028 1011.126 C 1028 1009.762, 1023.544 1005, 1022.268 1005 C 1021.815 1005, 1020.445 1005.701, 1019.223 1006.557 M 493.750 1028.080 C 490.190 1030.153, 492.220 1036, 496.500 1036 C 501.064 1036, 502.536 1031.189, 498.777 1028.557 C 496.193 1026.746, 496.061 1026.734, 493.750 1028.080 M 748 1033 C 744.440 1036.560, 746.731 1043, 751.557 1043 C 757.139 1043, 759.688 1036.934, 755.686 1033.174 C 752.807 1030.470, 750.581 1030.419, 748 1033 M 239 1042.306 C 239 1042.642, 243.886 1045.417, 249.858 1048.472 C 263.414 1055.406, 288 1071.448, 288 1073.359 C 288 1076.571, 284.877 1075.319, 272.418 1067.115 C 259.764 1058.782, 244.005 1049.971, 239.129 1048.503 C 235.475 1047.402, 241.367 1055.553, 251.417 1065.500 C 264.437 1078.387, 280.510 1084.993, 307.301 1088.469 C 320.079 1090.127, 325 1090.370, 325 1089.345 C 325 1088.985, 322.089 1084.317, 318.531 1078.973 C 305.831 1059.896, 290.687 1049.058, 271 1044.955 C 261.599 1042.996, 239 1041.125, 239 1042.306 M 736.378 1049.138 C 716.674 1061.988, 668.319 1098.653, 669.509 1099.842 C 670.547 1100.880, 709.099 1074.094, 725.503 1060.938 C 747.541 1043.262, 750.785 1039.742, 736.378 1049.138 M 572.200 1048.200 C 571.540 1048.860, 571 1050.570, 571 1052 C 571 1057.272, 576.691 1058.928, 579.592 1054.500 C 582.634 1049.858, 576.106 1044.294, 572.200 1048.200 M 961.223 1086.557 C 956.892 1089.590, 959.451 1097, 964.829 1097 C 966.023 1097, 967.900 1096.100, 969 1095 C 974.302 1089.698, 967.414 1082.220, 961.223 1086.557 M 590.200 1088.200 C 587.395 1091.005, 589.508 1096, 593.500 1096 C 596.233 1096, 598 1094.168, 598 1091.335 C 598 1087.786, 592.731 1085.669, 590.200 1088.200 M 234.851 1090.750 C 237.360 1094.223, 244.032 1100.533, 250.500 1105.551 C 261.254 1113.893, 268 1120.243, 268 1122.026 C 268 1125.387, 266.111 1125.142, 261.775 1121.217 C 259.424 1119.089, 253.675 1114.279, 249 1110.528 C 244.325 1106.778, 238.588 1101.881, 236.250 1099.646 C 231.434 1095.043, 231.215 1095.405, 233.970 1103.414 C 240.815 1123.307, 257.281 1137.113, 284.141 1145.477 C 296.851 1149.435, 298.161 1148.935, 293.243 1142 C 291.098 1138.975, 286.343 1131.488, 282.676 1125.363 C 271.317 1106.390, 264.004 1099.968, 245 1092.276 C 232.564 1087.242, 232.286 1087.201, 234.851 1090.750 M 851.093 1097.388 C 849.474 1099.339, 850.069 1104.028, 852.095 1105.296 C 856.354 1107.961, 861.961 1102.354, 859.296 1098.095 C 857.957 1095.955, 852.661 1095.498, 851.093 1097.388 M 656.693 1102.700 C 653.848 1103.438, 652.640 1107.802, 654.496 1110.635 C 657.701 1115.525, 666.318 1111.729, 664.564 1106.201 C 664.088 1104.702, 659.623 1101.590, 658.703 1102.116 C 658.591 1102.180, 657.687 1102.443, 656.693 1102.700 M 450.040 1108.452 C 447.326 1111.721, 452.279 1116.674, 455.548 1113.960 C 457.482 1112.355, 457.400 1108.368, 455.418 1107.607 C 452.907 1106.643, 451.336 1106.890, 450.040 1108.452 M 526.200 1126.200 C 525.540 1126.860, 525 1128.155, 525 1129.078 C 525 1133.390, 532.228 1134.422, 532.827 1130.195 C 533.425 1125.972, 529.060 1123.340, 526.200 1126.200 M 450.500 1158.307 C 450.500 1168.220, 450.500 1168.220, 445.653 1172.610 C 440.807 1177, 440.807 1177, 445.943 1177 C 452.399 1177, 457.643 1179.596, 462.393 1185.146 C 466 1189.360, 466 1189.360, 466.002 1183.430 C 466.004 1175.258, 468.212 1171.267, 474.956 1167.250 C 480.412 1164, 480.412 1164, 475.865 1164 C 466.098 1164, 457.716 1159.776, 453.131 1152.544 C 450.500 1148.394, 450.500 1148.394, 450.500 1158.307 M 588.200 1198.200 C 586.077 1200.323, 586.789 1203.947, 589.578 1205.217 C 592.716 1206.647, 595.346 1205.332, 595.827 1202.093 C 596.455 1197.860, 591.214 1195.186, 588.200 1198.200 M 736.169 1200.512 C 732.160 1205.609, 737.700 1212.106, 742.807 1208.297 C 746.422 1205.600, 746.635 1203.544, 743.614 1200.523 C 740.434 1197.343, 738.664 1197.340, 736.169 1200.512 M 476.461 1213.405 C 473.785 1215.361, 474.899 1220.430, 478.086 1220.801 C 481.322 1221.177, 483.416 1218.792, 482.623 1215.632 C 481.920 1212.832, 478.791 1211.701, 476.461 1213.405 M 673.338 1220.030 C 669.350 1221.580, 669.259 1226.998, 673.185 1229.099 C 676.115 1230.667, 680.220 1227.694, 679.810 1224.301 C 679.413 1221.005, 676.232 1218.906, 673.338 1220.030 M 349.500 1221.398 C 341.943 1222.852, 329.263 1226.501, 327.271 1227.794 C 326.595 1228.233, 328.876 1228.412, 332.341 1228.191 C 346.728 1227.275, 372.122 1234.204, 368.363 1238.020 C 367.505 1238.891, 365.465 1238.539, 360.051 1236.586 C 349.696 1232.851, 322.770 1230.884, 323.059 1233.884 C 323.175 1235.082, 341.591 1247.488, 348 1250.686 C 358.086 1255.718, 365.881 1257.422, 379 1257.464 C 390.800 1257.501, 420.764 1254.322, 422.432 1252.856 C 423.450 1251.961, 413.296 1242.168, 404.141 1235.216 C 388.447 1223.296, 367.353 1217.962, 349.500 1221.398 M 898.205 1240.120 C 894.669 1241.428, 893.359 1245.373, 895.416 1248.513 C 899.511 1254.762, 907.162 1251.887, 906.094 1244.500 C 905.512 1240.478, 902.203 1238.641, 898.205 1240.120 M 785.228 1257.230 C 780.610 1259.456, 781.473 1267.328, 786.473 1268.583 C 793.770 1270.414, 797.038 1260.688, 790.316 1257.150 C 787.796 1255.824, 788.159 1255.818, 785.228 1257.230 M 318.077 1261.757 C 330.673 1270.280, 349.231 1294.581, 346.508 1298.987 C 345.077 1301.303, 342.834 1299.682, 340.645 1294.750 C 336.415 1285.217, 323.704 1270.946, 313.725 1264.523 C 310.366 1262.361, 310.025 1261.258, 318.968 1281.500 C 330.943 1308.607, 334.048 1312.705, 352.500 1325.769 C 359.100 1330.442, 366.421 1335.817, 368.768 1337.714 C 373.037 1341.164, 373.037 1341.164, 372.450 1335.332 C 368.437 1295.474, 356.464 1276.596, 327.191 1263.976 C 317.398 1259.755, 313.835 1258.887, 318.077 1261.757 M 526.571 1265.571 C 524.729 1267.414, 524.629 1268.438, 526.035 1271.066 C 527.933 1274.612, 534 1272.941, 534 1268.871 C 534 1266.810, 531.404 1264, 529.500 1264 C 528.754 1264, 527.436 1264.707, 526.571 1265.571 M 573.750 1266.080 C 571.741 1267.250, 571.432 1271.032, 573.200 1272.800 C 577.084 1276.684, 583.186 1271.073, 579.504 1267.004 C 577.482 1264.770, 576.320 1264.583, 573.750 1266.080 M 434.032 1311.940 C 432.386 1315.016, 434.391 1318.209, 437.716 1317.810 C 441.065 1317.408, 442.893 1314.644, 441.394 1312.250 C 439.750 1309.624, 435.370 1309.440, 434.032 1311.940 M 619.926 1328.074 C 617.482 1330.518, 617.491 1332.229, 619.960 1334.464 C 623.909 1338.038, 629.580 1333.820, 627.087 1329.163 C 625.567 1326.322, 622.191 1325.809, 619.926 1328.074 M 721.351 1339.066 C 716.624 1340.814, 718.706 1348.413, 723.746 1347.807 C 726.951 1347.421, 728.483 1345.060, 727.658 1341.774 C 726.951 1338.955, 724.498 1337.902, 721.351 1339.066 M 468.750 1348.080 C 466.741 1349.250, 466.432 1353.032, 468.200 1354.800 C 472.084 1358.684, 478.186 1353.073, 474.504 1349.004 C 472.482 1346.770, 471.320 1346.583, 468.750 1348.080 M 183.227 1374.244 C 168.509 1400.985, 170.646 1420.812, 191.200 1448.242 C 200.070 1460.078, 200.184 1459.820, 196.104 1437.262 C 191.916 1414.113, 191.002 1405.680, 190.985 1390.026 C 190.964 1371.742, 190.042 1371.122, 185.903 1386.608 C 183.881 1394.174, 181.932 1399.527, 181.101 1399.802 C 179.124 1400.458, 180.066 1395.490, 185.023 1379.121 C 187.252 1371.762, 188.906 1365.572, 188.698 1365.365 C 188.491 1365.158, 186.029 1369.153, 183.227 1374.244 M 195.325 1391.500 C 195.783 1414.878, 197.050 1425.266, 201.846 1445 C 203.668 1452.500, 203.668 1452.500, 205.910 1445.138 C 214.442 1417.115, 212.187 1397.666, 197.545 1373 C 194.874 1368.500, 194.874 1368.500, 195.325 1391.500 M 413.263 1383.189 C 406.812 1384.906, 404.891 1394.045, 409.923 1399.077 C 417.641 1406.795, 429.847 1398.748, 425.651 1388.708 C 423.539 1383.653, 419.045 1381.651, 413.263 1383.189 M 564.750 1384.080 C 562.740 1385.251, 562.401 1390.001, 564.200 1391.800 C 567.250 1394.850, 572 1392.435, 572 1387.835 C 572 1383.892, 568.333 1381.993, 564.750 1384.080 M 235 1385.086 C 235 1388.058, 245.601 1407.335, 252 1416 C 263.825 1432.013, 264.423 1432.977, 263.247 1434.153 C 261.666 1435.734, 260.691 1434.816, 252.603 1424.137 C 243.599 1412.246, 238.926 1405.009, 233.869 1395.122 C 230 1387.555, 230 1387.555, 230.035 1391.528 C 230.252 1416.274, 244.524 1439.905, 268.066 1454.499 C 277.068 1460.080, 295.842 1469.491, 296.554 1468.779 C 297.240 1468.094, 286.831 1439.458, 283.760 1433.583 C 279.572 1425.570, 235 1381.239, 235 1385.086 M 399.379 1430.641 C 381.279 1467.936, 378.832 1473.588, 379.199 1477.245 C 379.496 1480.202, 380.086 1479.402, 385.643 1468.500 C 392.313 1455.414, 402.154 1433.133, 406.843 1420.500 C 408.476 1416.100, 410.293 1411.263, 410.881 1409.750 C 411.469 1408.237, 411.703 1407, 411.402 1407 C 411.100 1407, 405.690 1417.638, 399.379 1430.641 M 627.200 1409.200 C 623.294 1413.106, 628.858 1419.634, 633.500 1416.592 C 637.928 1413.691, 636.272 1408, 631 1408 C 629.570 1408, 627.860 1408.540, 627.200 1409.200 M 457.596 1420.306 C 454.744 1422.391, 455.855 1426.426, 459.391 1426.830 C 463.698 1427.322, 465.489 1423.632, 462.429 1420.571 C 460.519 1418.662, 459.892 1418.627, 457.596 1420.306 M 370.690 1464 C 370.357 1465.375, 369.585 1470.543, 368.974 1475.485 C 368.363 1480.427, 367.671 1484.662, 367.437 1484.896 C 367.203 1485.130, 363.108 1483.562, 358.337 1481.411 C 353.566 1479.260, 349.176 1477.335, 348.581 1477.134 C 347.986 1476.932, 350.762 1480.093, 354.750 1484.157 C 358.738 1488.222, 362 1492.012, 362 1492.581 C 362 1493.150, 357.387 1494.883, 351.750 1496.432 C 337.178 1500.435, 337.163 1501.345, 351.681 1500.720 C 358.380 1500.431, 364.061 1500.395, 364.305 1500.639 C 364.550 1500.883, 363.456 1505.902, 361.876 1511.791 C 360.295 1517.681, 359.003 1522.725, 359.003 1523 C 359.004 1523.275, 360.500 1521.025, 362.327 1518 C 370.456 1504.541, 371.189 1503.586, 372.116 1505.242 C 372.600 1506.108, 376.353 1521.595, 380.455 1539.658 C 388.557 1575.333, 392.377 1591.483, 405.097 1643.839 C 409.686 1662.726, 413.570 1677.790, 413.728 1677.315 C 414.036 1676.393, 406.584 1640.104, 389.555 1559.595 C 383.750 1532.147, 379 1509.484, 379 1509.234 C 379 1508.983, 379.885 1509.841, 380.967 1511.139 C 383.418 1514.082, 383.420 1513.932, 381.024 1506.052 C 379.946 1502.505, 379.162 1499.523, 379.282 1499.425 C 379.402 1499.326, 383.532 1500.071, 388.459 1501.080 C 393.387 1502.089, 397.613 1502.720, 397.851 1502.482 C 398.090 1502.244, 394.641 1500.350, 390.188 1498.275 C 385.734 1496.199, 382.070 1494.127, 382.045 1493.671 C 382.020 1493.216, 384.780 1489.391, 388.177 1485.171 C 391.575 1480.952, 394.775 1476.943, 395.290 1476.262 C 395.804 1475.581, 392.395 1476.819, 387.715 1479.012 C 383.035 1481.206, 378.728 1483, 378.145 1483 C 377.169 1483, 374.559 1475.259, 372.244 1465.500 C 371.382 1461.866, 371.239 1461.729, 370.690 1464 M 835.251 1478.481 C 811.095 1485.281, 787.764 1519.207, 777.469 1562.500 C 773.296 1580.053, 768.910 1622, 771.249 1622 C 772.090 1622, 796.715 1614.099, 832 1602.507 C 849.325 1596.815, 870.580 1590.080, 879.233 1587.541 C 914.409 1577.217, 928.600 1569.072, 934.866 1555.609 C 943.790 1536.437, 929.776 1522.605, 901.500 1522.679 C 889.864 1522.709, 881.940 1524.599, 868.467 1530.557 C 861.403 1533.681, 861.134 1533.434, 864.984 1527.365 C 872.214 1515.967, 874.914 1499.586, 870.922 1491.339 C 865.503 1480.146, 849.644 1474.429, 835.251 1478.481 M 515.765 1499.617 C 514.713 1501.925, 514.845 1502.456, 516.879 1504.103 C 519.723 1506.406, 523 1505.100, 523 1501.665 C 523 1496.764, 517.742 1495.276, 515.765 1499.617 M 584.351 1502.558 C 581.779 1505.130, 582.087 1507.168, 585.475 1509.979 C 588.992 1512.898, 594.344 1507.381, 592.087 1503.163 C 590.426 1500.059, 587.109 1499.800, 584.351 1502.558 M 475.660 1552.732 C 465.891 1583.775, 465.061 1599.087, 472.168 1617.071 C 475.500 1625.500, 475.500 1625.500, 476 1605.082 C 476.369 1590.001, 476.827 1584.556, 477.750 1584.249 C 478.688 1583.937, 479 1586.084, 479 1592.862 C 479 1603.329, 480.834 1626.378, 481.895 1629.246 C 482.876 1631.897, 489.961 1602.557, 490.697 1592.797 C 491.462 1582.651, 483.757 1545.485, 480.110 1541.732 C 479.699 1541.309, 477.697 1546.259, 475.660 1552.732 M 306.582 1587.653 C 305.241 1602.459, 306.163 1601.799, 295.122 1595.853 C 284.906 1590.351, 284.853 1590.520, 293.732 1600.307 C 296.629 1603.501, 299 1606.450, 299 1606.860 C 299 1607.271, 295.738 1608.649, 291.750 1609.923 C 277.988 1614.321, 277.988 1615.001, 291.750 1614.309 C 305.979 1613.593, 305.122 1612.635, 302.500 1626.338 C 301.675 1630.649, 301.014 1634.474, 301.032 1634.838 C 301.049 1635.202, 303.264 1631.276, 305.954 1626.114 C 312.827 1612.922, 312.277 1613.246, 320.451 1617.583 C 327.286 1621.211, 327.286 1621.211, 325.251 1618.355 C 324.132 1616.785, 322.226 1614.605, 321.015 1613.511 C 316.097 1609.066, 316.304 1608.562, 325.985 1601.457 C 330.943 1597.818, 335 1594.662, 335 1594.445 C 335 1594.228, 331.288 1595.453, 326.750 1597.167 C 313.052 1602.343, 313.519 1602.446, 311.628 1593.846 C 310.739 1589.806, 309.728 1585.037, 309.381 1583.250 C 308.345 1577.913, 307.319 1579.527, 306.582 1587.653 M 557.596 1596.306 C 553.846 1599.048, 557.833 1605.848, 561.750 1603.393 C 565.114 1601.284, 563.804 1595, 560 1595 C 559.660 1595, 558.579 1595.588, 557.596 1596.306 M 1014 1600.562 C 977.030 1608.391, 962.383 1615.030, 947.250 1630.818 C 943.263 1634.978, 940 1638.709, 940 1639.108 C 940 1639.508, 943.938 1637.569, 948.750 1634.800 C 964.926 1625.491, 982.530 1617.206, 1004.585 1608.523 C 1032.525 1597.522, 1031.141 1598.136, 1028 1598.131 C 1026.625 1598.129, 1020.325 1599.223, 1014 1600.562 M 258.040 1671.452 C 255.383 1674.653, 259.285 1679.570, 262.750 1677.388 C 266.212 1675.207, 264.979 1670, 261 1670 C 260.035 1670, 258.703 1670.653, 258.040 1671.452 M 550.500 1693.339 C 545.229 1700.453, 537.293 1703.109, 528.561 1700.684 C 525.623 1699.867, 525.623 1699.867, 529.679 1704.268 C 536.226 1711.371, 537.036 1716.272, 533.371 1726.621 C 532.945 1727.824, 534.109 1727.167, 536.603 1724.799 C 544.009 1717.766, 549.689 1716.809, 558.265 1721.150 C 562.029 1723.056, 562.029 1723.056, 558.369 1718.278 C 552.013 1709.982, 550.500 1702.941, 553.078 1693.656 C 554.492 1688.565, 554.075 1688.514, 550.500 1693.339 M 345.503 1710.250 C 345.745 1710.938, 346.412 1718.025, 346.984 1726 C 349.339 1758.810, 354.732 1776.012, 367.115 1790.205 C 370.862 1794.500, 370.862 1794.500, 367.520 1784 C 365.682 1778.225, 362.563 1769.090, 360.589 1763.700 C 356.696 1753.070, 356.464 1752, 358.055 1752 C 359.386 1752, 362.128 1758.220, 369.956 1779 C 376.427 1796.179, 378.226 1799.735, 377.504 1793.914 C 377.270 1792.036, 376.849 1785.468, 376.567 1779.317 C 375.815 1762.901, 373.852 1755.818, 365.517 1739.435 C 358.254 1725.158, 356.718 1722.596, 350.128 1713.750 C 346.757 1709.226, 344.555 1707.559, 345.503 1710.250 M 419.455 1718.455 C 415.140 1722.769, 418.032 1730, 424.073 1730 C 430.552 1730, 433.415 1722.045, 428.365 1718.073 C 424.905 1715.351, 422.453 1715.456, 419.455 1718.455 M 490.199 1775.750 C 488.755 1778.936, 488.509 1782.883, 488.557 1802 C 488.633 1831.619, 491.140 1843.283, 501.239 1861 C 507.438 1871.875, 511.238 1880.785, 520.220 1905.500 C 529.343 1930.604, 537.305 1950.785, 545.427 1969.390 C 548.522 1976.479, 550.929 1982.398, 550.777 1982.543 C 550.625 1982.688, 542.520 1975.312, 532.767 1966.153 C 514.371 1948.877, 513.566 1947.960, 497.989 1926.500 C 492.800 1919.350, 485.068 1909.157, 480.808 1903.850 C 476.548 1898.542, 469.217 1888.323, 464.517 1881.141 C 451.609 1861.418, 441.826 1849.955, 434.104 1845.506 C 431.712 1844.128, 433.644 1855.516, 439.016 1874.459 C 451.601 1918.834, 458.586 1927.859, 494 1945.500 C 513.819 1955.372, 518.604 1958.949, 539.034 1979.163 C 561.229 2001.124, 571.047 2015.030, 558.445 2006.659 C 555.725 2004.852, 549.900 2001.423, 545.500 1999.038 C 541.100 1996.653, 533.225 1991.681, 528 1987.990 C 506.136 1972.544, 490.274 1967, 467.949 1967 C 457.087 1967, 456.310 1967.420, 458.321 1972.206 C 464.251 1986.319, 496.661 2000, 524.163 2000 C 544.460 2000, 564.951 2012.194, 576.254 2031 C 579.064 2035.675, 585.332 2045.880, 590.182 2053.677 C 595.032 2061.475, 599 2068.033, 599 2068.251 C 599 2068.469, 595.933 2067.619, 592.185 2066.362 C 588.436 2065.104, 580.374 2063.422, 574.270 2062.622 C 558.925 2060.613, 556.084 2059.112, 542.253 2045.704 C 526.339 2030.277, 524.728 2029.483, 509.500 2029.562 C 496.852 2029.628, 489.500 2031.254, 489.500 2033.986 C 489.500 2035.733, 516.902 2057.540, 523.845 2061.319 C 531.968 2065.740, 538.945 2066.998, 555.460 2067.020 C 572.540 2067.042, 581.640 2068.101, 591 2071.155 C 602.521 2074.914, 604.416 2076.322, 612.656 2087.253 C 635.245 2117.218, 670.579 2157.640, 673.370 2156.711 C 676.115 2155.797, 674.733 2152.633, 668.814 2146.282 C 650.369 2126.489, 629.723 2101.840, 626.820 2096.147 C 623.973 2090.563, 624.276 2073.192, 627.425 2061.500 C 632.997 2040.813, 633.453 2036.993, 633.477 2010.826 C 633.502 1983.576, 632.919 1980.934, 626.714 1980.190 C 617.529 1979.088, 611.203 2020.570, 617.439 2041 C 621.878 2055.540, 622.308 2059.263, 621.367 2075 L 620.500 2089.500 612.405 2078 C 591.322 2048.050, 588.001 2039.999, 588 2018.838 C 588 2002.451, 590.685 1992.868, 598.065 1982.912 C 609.445 1967.562, 613.937 1952.996, 614.725 1928.888 C 615.303 1911.216, 614.764 1904.427, 612.540 1901.385 C 609.323 1896.986, 602.865 1906.995, 596.564 1926.141 C 590.698 1943.969, 589.007 1954.228, 589.003 1972.023 C 589 1984.393, 588.617 1988.025, 586.416 1996.523 C 584.321 2004.612, 583.810 2009.007, 583.716 2019.751 C 583.582 2034.953, 584.408 2035.507, 570.678 2011 C 550.188 1974.425, 543.085 1950.218, 545.831 1926.308 C 547.872 1908.529, 550.923 1900.166, 559.992 1887.500 C 570.091 1873.396, 578.669 1852.492, 584.504 1827.767 C 588.548 1810.633, 585.529 1808.854, 574.124 1821.650 C 562.848 1834.302, 554.925 1856.021, 547.003 1896 C 545.858 1901.775, 544.249 1909.425, 543.427 1913 C 542.605 1916.575, 541.610 1925.350, 541.216 1932.500 L 540.500 1945.500 534.244 1928.920 C 517.046 1883.339, 510.006 1853.164, 507.995 1816.393 C 506.802 1794.590, 505.738 1786.010, 503.591 1780.873 C 499.586 1771.288, 493.309 1768.887, 490.199 1775.750 M 287.016 1921.707 C 284.526 1924.873, 284.964 1928.551, 288.153 1931.250 C 294.447 1936.575, 302.845 1926.845, 297 1921 C 294.094 1918.094, 289.608 1918.411, 287.016 1921.707 M 317.766 1974.918 C 314.876 1977.500, 314.500 1978.431, 314.500 1983 C 314.500 1995.628, 331.059 1998.442, 335.005 1986.484 C 338.567 1975.690, 326.193 1967.388, 317.766 1974.918 M 356.299 2024.900 C 350.129 2028.776, 348.133 2037.426, 351.960 2043.701 C 359.731 2056.447, 379.957 2047.695, 376.072 2033.267 C 373.748 2024.638, 363.571 2020.331, 356.299 2024.900 M 399.984 2072.824 C 392.922 2076.521, 390.202 2086.307, 394.266 2093.396 C 401.561 2106.119, 420.423 2101.944, 421.701 2087.324 C 422.730 2075.555, 410.442 2067.350, 399.984 2072.824 M 449.500 2116.959 C 439.286 2121.212, 438.085 2137.181, 447.538 2143.024 C 459.637 2150.501, 473.821 2138.327, 468.361 2125.151 C 465.203 2117.532, 456.845 2113.901, 449.500 2116.959 M 501.270 2158.428 C 491.568 2162.809, 491.662 2178.765, 501.417 2183.394 C 513.470 2189.113, 525.490 2177.678, 520.139 2165.582 C 516.908 2158.277, 508.589 2155.123, 501.270 2158.428 M 559.315 2195.464 C 548.438 2200.194, 552.484 2217, 564.499 2217 C 575.539 2217, 579.443 2202.565, 570.102 2196.285 C 566.224 2193.677, 563.840 2193.496, 559.315 2195.464 M 618.073 2229.635 C 615.323 2233.130, 615.455 2236.546, 618.455 2239.545 C 625.155 2246.246, 634.808 2237.111, 628.927 2229.635 C 627.424 2227.724, 625.933 2227, 623.500 2227 C 621.067 2227, 619.576 2227.724, 618.073 2229.635" stroke="none" fill="#2b1b14" fill-rule="evenodd"/>
</svg>